# xmcd
# 
# Track frame offsets:
#     182
#     15895
#     30760
#     43005
#     60977
#     74727
#     91922
#     106097
#     121480
#     134920
#     152472
#     172122
#     183412
#     195137
#     212395
#     225642
# 
# Disc length: 3265
# 
# Revision: 2
# Processed by: cddbd v1.5.2PL0 Copyright (c) Steve Scherf et al.
# Submitted via: BonkEnc v1.0.8
# 
DISCID=c50cbf10
DTITLE=Milionário e José Rico - Disco de Ouro Vol.1
DYEAR=0
DGENRE=Sertanejo (Br)
TTITLE0=Berço de Deus
TTITLE1=Livro da vida
TTITLE2=Águas da saudade
TTITLE3=Praia deserta
TTITLE4=Vá pro inferno com seu amor
TTITLE5=Tudo bem
TTITLE6=Canção de um amor distante
TTITLE7=Jogo do amor
TTITLE8=Cinzeiro cheio
TTITLE9=Homens
TTITLE10=Velho candieiro
TTITLE11=Carro velho
TTITLE12=O tropeiro
TTITLE13=Esquina do adeus
TTITLE14=Genro valente
TTITLE15=Mãe de leite
EXTD=
EXTT0=
EXTT1=
EXTT2=
EXTT3=
EXTT4=
EXTT5=
EXTT6=
EXTT7=
EXTT8=
EXTT9=
EXTT10=
EXTT11=
EXTT12=
EXTT13=
EXTT14=
EXTT15=
PLAYORDER=
